# xmcd
#
# Track frame offsets: 
#        150
#        13857
#        35461
#        48777
#        63491
#        91122
#        108583
#        125053
#        136507
#
# Disc length: 2091 seconds
#
# Revision: 0
# Processed by: cddbd v1.5.2PL0 Copyright (c) Steve Scherf et al.
# Submitted via: ExactAudioCopy v0.95a4
#
DISCID=70082909
DTITLE=Klondike - Live
DYEAR=2007
DGENRE=Rock and Roll
TTITLE0=Americano
TTITLE1=Let it be
TTITLE2=Moje, moje
TTITLE3=Pango
TTITLE4=Ivanko
TTITLE5=Crazy mouse
TTITLE6=Zastudyvsya
TTITLE7=Haleluja
TTITLE8=Muha
EXTD=
EXTT0=
EXTT1=
EXTT2=
EXTT3=
EXTT4=
EXTT5=
EXTT6=
EXTT7=
EXTT8=
PLAYORDER=
